<?xml version="1.0" encoding="UTF-8" standalone="no"?>
<!DOCTYPE svg PUBLIC "-//W3C//DTD SVG 1.1//EN"
 "http://www.w3.org/Graphics/SVG/1.1/DTD/svg11.dtd">
<!-- Generated by graphviz version 5.0.0 (20220707.1540)
 -->
<!-- Title: dependencies Pages: 1 -->
<svg width="1972pt" height="174pt"
 viewBox="0.00 0.00 1972.00 173.80" xmlns="http://www.w3.org/2000/svg" xmlns:xlink="http://www.w3.org/1999/xlink">
<g id="graph0" class="graph" transform="scale(1 1) rotate(0) translate(4 169.8)">
<title>dependencies</title>
<polygon fill="white" stroke="transparent" points="-4,4 -4,-169.8 1968,-169.8 1968,4 -4,4"/>
<text text-anchor="middle" x="982" y="-8.2" font-family="sans-serif" font-size="14.00">dependencies</text>
<g id="clust1" class="cluster">
<title>cluster_AppModule</title>
<polygon fill="none" stroke="black" stroke-dasharray="1,5" points="8,-32.8 8,-157.8 1956,-157.8 1956,-32.8 8,-32.8"/>
</g>
<g id="clust6" class="cluster">
<title>cluster_AppModule_providers</title>
<polygon fill="none" stroke="black" points="16,-40.8 16,-92.8 1948,-92.8 1948,-40.8 16,-40.8"/>
</g>
<!-- AppService -->
<g id="node1" class="node">
<title>AppService</title>
<ellipse fill="#fdb462" stroke="black" cx="1883" cy="-66.8" rx="56.75" ry="18"/>
<text text-anchor="middle" x="1883" y="-62.6" font-family="Times,serif" font-size="14.00">AppService</text>
</g>
<!-- AppModule -->
<g id="node11" class="node">
<title>AppModule</title>
<polygon fill="#8dd3c7" stroke="black" points="1016.66,-149.8 1013.66,-153.8 992.66,-153.8 989.66,-149.8 933.34,-149.8 933.34,-113.8 1016.66,-113.8 1016.66,-149.8"/>
<text text-anchor="middle" x="975" y="-127.6" font-family="Times,serif" font-size="14.00">AppModule</text>
</g>
<!-- AppService&#45;&gt;AppModule -->
<g id="edge1" class="edge">
<title>AppService&#45;&gt;AppModule</title>
<path fill="none" stroke="black" d="M1883,-84.81C1883,-107.29 1883,-142.8 1883,-142.8 1883,-142.8 1026.67,-142.8 1026.67,-142.8"/>
<polygon fill="black" stroke="black" points="1026.67,-139.3 1016.67,-142.8 1026.67,-146.3 1026.67,-139.3"/>
</g>
<!-- ClusterMetricsService -->
<g id="node2" class="node">
<title>ClusterMetricsService</title>
<ellipse fill="#fdb462" stroke="black" cx="1711" cy="-66.8" rx="97.28" ry="18"/>
<text text-anchor="middle" x="1711" y="-62.6" font-family="Times,serif" font-size="14.00">ClusterMetricsService</text>
</g>
<!-- ClusterMetricsService&#45;&gt;AppModule -->
<g id="edge2" class="edge">
<title>ClusterMetricsService&#45;&gt;AppModule</title>
<path fill="none" stroke="black" d="M1711,-84.93C1711,-105.37 1711,-135.8 1711,-135.8 1711,-135.8 1026.68,-135.8 1026.68,-135.8"/>
<polygon fill="black" stroke="black" points="1026.68,-132.3 1016.68,-135.8 1026.68,-139.3 1026.68,-132.3"/>
</g>
<!-- DeploymentInformationService -->
<g id="node3" class="node">
<title>DeploymentInformationService</title>
<ellipse fill="#fdb462" stroke="black" cx="1462" cy="-66.8" rx="133.71" ry="18"/>
<text text-anchor="middle" x="1462" y="-62.6" font-family="Times,serif" font-size="14.00">DeploymentInformationService</text>
</g>
<!-- DeploymentInformationService&#45;&gt;AppModule -->
<g id="edge3" class="edge">
<title>DeploymentInformationService&#45;&gt;AppModule</title>
<path fill="none" stroke="black" d="M1462,-85.07C1462,-103.36 1462,-128.8 1462,-128.8 1462,-128.8 1026.94,-128.8 1026.94,-128.8"/>
<polygon fill="black" stroke="black" points="1026.94,-125.3 1016.94,-128.8 1026.94,-132.3 1026.94,-125.3"/>
</g>
<!-- DerivativeService -->
<g id="node4" class="node">
<title>DerivativeService</title>
<ellipse fill="#fdb462" stroke="black" cx="1229" cy="-66.8" rx="81" ry="18"/>
<text text-anchor="middle" x="1229" y="-62.6" font-family="Times,serif" font-size="14.00">DerivativeService</text>
</g>
<!-- DerivativeService&#45;&gt;AppModule -->
<g id="edge4" class="edge">
<title>DerivativeService&#45;&gt;AppModule</title>
<path fill="none" stroke="black" d="M1229,-84.81C1229,-100.85 1229,-121.8 1229,-121.8 1229,-121.8 1026.94,-121.8 1026.94,-121.8"/>
<polygon fill="black" stroke="black" points="1026.94,-118.3 1016.94,-121.8 1026.94,-125.3 1026.94,-118.3"/>
</g>
<!-- EventSetService -->
<g id="node5" class="node">
<title>EventSetService</title>
<ellipse fill="#fdb462" stroke="black" cx="1055" cy="-66.8" rx="74.72" ry="18"/>
<text text-anchor="middle" x="1055" y="-62.6" font-family="Times,serif" font-size="14.00">EventSetService</text>
</g>
<!-- EventSetService&#45;&gt;AppModule -->
<g id="edge5" class="edge">
<title>EventSetService&#45;&gt;AppModule</title>
<path fill="none" stroke="black" d="M998.49,-78.72C998.49,-78.72 998.49,-103.57 998.49,-103.57"/>
<polygon fill="black" stroke="black" points="994.99,-103.57 998.49,-113.57 1001.99,-103.57 994.99,-103.57"/>
</g>
<!-- EventsService -->
<g id="node6" class="node">
<title>EventsService</title>
<ellipse fill="#fdb462" stroke="black" cx="896" cy="-66.8" rx="66.05" ry="18"/>
<text text-anchor="middle" x="896" y="-62.6" font-family="Times,serif" font-size="14.00">EventsService</text>
</g>
<!-- EventsService&#45;&gt;AppModule -->
<g id="edge6" class="edge">
<title>EventsService&#45;&gt;AppModule</title>
<path fill="none" stroke="black" d="M947.72,-78.12C947.72,-78.12 947.72,-103.74 947.72,-103.74"/>
<polygon fill="black" stroke="black" points="944.22,-103.74 947.72,-113.74 951.22,-103.74 944.22,-103.74"/>
</g>
<!-- HpaService -->
<g id="node7" class="node">
<title>HpaService</title>
<ellipse fill="#fdb462" stroke="black" cx="756" cy="-66.8" rx="56.16" ry="18"/>
<text text-anchor="middle" x="756" y="-62.6" font-family="Times,serif" font-size="14.00">HpaService</text>
</g>
<!-- HpaService&#45;&gt;AppModule -->
<g id="edge7" class="edge">
<title>HpaService&#45;&gt;AppModule</title>
<path fill="none" stroke="black" d="M756,-84.81C756,-100.85 756,-121.8 756,-121.8 756,-121.8 923.29,-121.8 923.29,-121.8"/>
<polygon fill="black" stroke="black" points="923.29,-125.3 933.29,-121.8 923.29,-118.3 923.29,-125.3"/>
</g>
<!-- PodMetricsService -->
<g id="node8" class="node">
<title>PodMetricsService</title>
<ellipse fill="#fdb462" stroke="black" cx="597" cy="-66.8" rx="84.54" ry="18"/>
<text text-anchor="middle" x="597" y="-62.6" font-family="Times,serif" font-size="14.00">PodMetricsService</text>
</g>
<!-- PodMetricsService&#45;&gt;AppModule -->
<g id="edge8" class="edge">
<title>PodMetricsService&#45;&gt;AppModule</title>
<path fill="none" stroke="black" d="M597,-85.07C597,-103.36 597,-128.8 597,-128.8 597,-128.8 923.1,-128.8 923.1,-128.8"/>
<polygon fill="black" stroke="black" points="923.1,-132.3 933.1,-128.8 923.1,-125.3 923.1,-132.3"/>
</g>
<!-- PrometheusMetricsService -->
<g id="node9" class="node">
<title>PrometheusMetricsService</title>
<ellipse fill="#fdb462" stroke="black" cx="379" cy="-66.8" rx="115.18" ry="18"/>
<text text-anchor="middle" x="379" y="-62.6" font-family="Times,serif" font-size="14.00">PrometheusMetricsService</text>
</g>
<!-- PrometheusMetricsService&#45;&gt;AppModule -->
<g id="edge9" class="edge">
<title>PrometheusMetricsService&#45;&gt;AppModule</title>
<path fill="none" stroke="black" d="M379,-84.93C379,-105.37 379,-135.8 379,-135.8 379,-135.8 923.09,-135.8 923.09,-135.8"/>
<polygon fill="black" stroke="black" points="923.09,-139.3 933.09,-135.8 923.09,-132.3 923.09,-139.3"/>
</g>
<!-- ScalingConditionsService -->
<g id="node10" class="node">
<title>ScalingConditionsService</title>
<ellipse fill="#fdb462" stroke="black" cx="135" cy="-66.8" rx="111.2" ry="18"/>
<text text-anchor="middle" x="135" y="-62.6" font-family="Times,serif" font-size="14.00">ScalingConditionsService</text>
</g>
<!-- ScalingConditionsService&#45;&gt;AppModule -->
<g id="edge10" class="edge">
<title>ScalingConditionsService&#45;&gt;AppModule</title>
<path fill="none" stroke="black" d="M135,-84.81C135,-107.29 135,-142.8 135,-142.8 135,-142.8 923.06,-142.8 923.06,-142.8"/>
<polygon fill="black" stroke="black" points="923.06,-146.3 933.06,-142.8 923.06,-139.3 923.06,-146.3"/>
</g>
</g>
</svg>
